<svg width="17" height="17" fill="none" xmlns="http://www.w3.org/2000/svg"><path d="M11.555 7.969H9.03V5.445a.133.133 0 00-.133-.133h-.796a.133.133 0 00-.133.133V7.97H5.445a.133.133 0 00-.133.133v.796c0 .073.06.133.133.133H7.97v2.524c0 .073.06.133.133.133h.796c.073 0 .133-.06.133-.133V9.03h2.524c.073 0 .133-.06.133-.133v-.796a.133.133 0 00-.133-.133z" fill="#E06012"/><path d="M8.5 1.063a7.438 7.438 0 10.001 14.875A7.438 7.438 0 008.5 1.062zm0 13.613a6.177 6.177 0 010-12.352 6.177 6.177 0 010 12.352z" fill="#E06012"/></svg>