<svg width="8" height="8" viewBox="0 0 8 8" fill="none" xmlns="http://www.w3.org/2000/svg">
<g clip-path="url(#clip0)">
<path d="M4.73294 4.00657L7.84799 0.891434C8.05071 0.688808 8.05071 0.361188 7.84799 0.158562C7.64536 -0.0440649 7.31774 -0.0440649 7.11511 0.158562L3.99997 3.2737L0.884916 0.158562C0.682194 -0.0440649 0.354669 -0.0440649 0.152042 0.158562C-0.0506805 0.361188 -0.0506805 0.688808 0.152042 0.891434L3.26709 4.00657L0.152042 7.12171C-0.0506805 7.32433 -0.0506805 7.65195 0.152042 7.85458C0.253023 7.95566 0.385799 8.00643 0.518479 8.00643C0.65116 8.00643 0.78384 7.95566 0.884916 7.85458L3.99997 4.73944L7.11511 7.85458C7.21619 7.95566 7.34887 8.00643 7.48155 8.00643C7.61423 8.00643 7.74691 7.95566 7.84799 7.85458C8.05071 7.65195 8.05071 7.32433 7.84799 7.12171L4.73294 4.00657Z" fill="#212121"/>
</g>
<defs>
<clipPath id="clip0">
<rect width="8" height="8" fill="white"/>
</clipPath>
</defs>
</svg>
