<svg width="30" height="30" fill="none" xmlns="http://www.w3.org/2000/svg"><path d="M15 30C6.717 30 0 23.283 0 15 0 6.717 6.717 0 15 0c8.283 0 15 6.717 15 15 0 8.283-6.717 15-15 15z" fill="#fff"/><path d="M15 6.606c2.733 0 3.057.009 4.137.06.999.045 1.542.213 1.902.354.477.186.819.408 1.176.765.357.357.579.699.765 1.176.14.36.306.903.354 1.902.048 1.08.06 1.404.06 4.137 0 2.733-.01 3.057-.06 4.137-.045.999-.213 1.542-.354 1.902a3.182 3.182 0 01-.765 1.176 3.182 3.182 0 01-1.176.765c-.36.141-.903.306-1.902.354-1.08.048-1.404.06-4.137.06-2.733 0-3.057-.009-4.137-.06-1-.045-1.542-.213-1.902-.354a3.182 3.182 0 01-1.176-.765 3.182 3.182 0 01-.765-1.176c-.141-.36-.306-.903-.354-1.902-.048-1.08-.06-1.404-.06-4.137 0-2.733.009-3.057.06-4.137.045-.999.213-1.542.354-1.902.186-.477.408-.819.765-1.176A3.182 3.182 0 018.96 7.02c.36-.141.903-.306 1.902-.354 1.08-.051 1.404-.06 4.137-.06zm0-1.845c-2.781 0-3.13.012-4.221.063-1.09.051-1.833.222-2.487.477A4.943 4.943 0 006.48 6.48a5.04 5.04 0 00-1.182 1.815c-.252.651-.426 1.395-.477 2.487-.051 1.092-.063 1.44-.063 4.221s.012 3.129.063 4.221c.05 1.089.222 1.833.477 2.487A5.005 5.005 0 006.48 23.52c.57.57 1.14.918 1.815 1.182.65.252 1.395.426 2.487.477 1.092.051 1.44.063 4.22.063 2.782 0 3.13-.012 4.222-.063 1.089-.051 1.833-.222 2.487-.477a5.005 5.005 0 001.809-1.182 5.04 5.04 0 001.182-1.815c.252-.651.426-1.395.477-2.487.05-1.092.063-1.44.063-4.221s-.012-3.129-.063-4.221c-.051-1.089-.222-1.833-.477-2.487A5.005 5.005 0 0023.52 6.48a5.04 5.04 0 00-1.815-1.182c-.651-.252-1.395-.426-2.487-.477-1.09-.048-1.437-.06-4.218-.06z" fill="#969696"/><path d="M15 9.741a5.26 5.26 0 10.001 10.52 5.26 5.26 0 000-10.52zm0 8.673a3.414 3.414 0 110-6.828 3.414 3.414 0 010 6.828zm5.466-7.65a1.23 1.23 0 100-2.46 1.23 1.23 0 000 2.46z" fill="#969696"/></svg>