<svg width="8" height="14" viewBox="0 0 8 14" fill="none" xmlns="http://www.w3.org/2000/svg">
<path d="M4.38711 13.8396C4.38728 13.8394 4.38747 13.8393 4.38763 13.8391L7.23138 10.9816C7.44441 10.7675 7.44362 10.4212 7.22952 10.2082C7.01544 9.99509 6.66919 9.99591 6.45613 10.21L4.54688 12.1285L4.54688 0.546875C4.54688 0.244836 4.30205 -1.35006e-07 4.00001 -1.48208e-07C3.69797 -1.61411e-07 3.45314 0.244836 3.45314 0.546875L3.45314 12.1285L1.54389 10.21C1.33083 9.99594 0.984576 9.99512 0.770503 10.2082C0.556374 10.4213 0.555636 10.7676 0.768643 10.9816L3.61239 13.8391C3.61255 13.8393 3.61274 13.8394 3.61291 13.8396C3.82668 14.0538 4.17405 14.0531 4.38711 13.8396Z" fill="#84CC6B"/>
</svg>
