<svg width="8" height="14" viewBox="0 0 8 14" fill="none" xmlns="http://www.w3.org/2000/svg">
<path d="M3.61288 0.160405C3.61272 0.160569 3.61253 0.160705 3.61237 0.160897L0.768622 3.01843C0.555588 3.2325 0.556381 3.57876 0.770482 3.79184C0.984555 4.00491 1.33081 4.00409 1.54387 3.79001L3.45312 1.87147L3.45312 13.4531C3.45312 13.7552 3.69795 14 3.99999 14C4.30203 14 4.54686 13.7552 4.54686 13.4531L4.54686 1.87149L6.45611 3.78999C6.66917 4.00406 7.01542 4.00488 7.2295 3.79182C7.44362 3.57873 7.44436 3.23245 7.23136 3.0184L4.38761 0.160869C4.38745 0.160705 4.38726 0.160569 4.38709 0.160377C4.17332 -0.0538065 3.82595 -0.0531227 3.61288 0.160405Z" fill="#E06012"/>
</svg>
