<svg width="32" height="32" viewBox="0 0 32 32" fill="none" xmlns="http://www.w3.org/2000/svg">
<path d="M11 15C11.5304 15 12.0391 14.7893 12.4142 14.4142C12.7893 14.0391 13 13.5304 13 13C13 12.4696 12.7893 11.9609 12.4142 11.5858C12.0391 11.2107 11.5304 11 11 11C10.4696 11 9.96086 11.2107 9.58579 11.5858C9.21071 11.9609 9 12.4696 9 13C9 13.5304 9.21071 14.0391 9.58579 14.4142C9.96086 14.7893 10.4696 15 11 15Z" fill="#D1D1D1"/>
<path d="M23 13C23 13.5304 22.7893 14.0391 22.4142 14.4142C22.0391 14.7893 21.5304 15 21 15C20.4696 15 19.9609 14.7893 19.5858 14.4142C19.2107 14.0391 19 13.5304 19 13C19 12.4696 19.2107 11.9609 19.5858 11.5858C19.9609 11.2107 20.4696 11 21 11C21.5304 11 22.0391 11.2107 22.4142 11.5858C22.7893 11.9609 23 12.4696 23 13Z" fill="#D1D1D1"/>
<path d="M23.1244 22.78C22.9184 22.9446 22.6557 23.0212 22.3935 22.9932C22.1313 22.9651 21.8908 22.8345 21.7244 22.63L21.7184 22.624C21.6317 22.5281 21.5403 22.4366 21.4444 22.35C21.1326 22.0693 20.7928 21.8214 20.4304 21.61C19.5084 21.07 18.0564 20.5 16.0044 20.5C13.9524 20.5 12.4984 21.068 11.5724 21.612C11.2094 21.8235 10.869 22.0714 10.5564 22.352C10.4598 22.4386 10.3677 22.5301 10.2804 22.626L10.2744 22.632C10.1917 22.734 10.0896 22.8188 9.97415 22.8814C9.85866 22.944 9.73198 22.9832 9.60133 22.9969C9.47068 23.0105 9.33862 22.9983 9.21269 22.9609C9.08676 22.9236 8.96942 22.8617 8.86738 22.779C8.76535 22.6963 8.68061 22.5942 8.618 22.4788C8.55539 22.3633 8.51614 22.2366 8.50249 22.1059C8.48884 21.9753 8.50105 21.8432 8.53844 21.7173C8.57583 21.5914 8.63765 21.474 8.72038 21.372L9.50038 22L8.72038 21.374V21.372L8.72438 21.37L8.72838 21.366L8.73838 21.354L8.76638 21.318L8.86438 21.21C8.94438 21.124 9.06038 21.006 9.21238 20.87C9.51638 20.594 9.96238 20.238 10.5604 19.888C11.7604 19.182 13.5604 18.5 16.0044 18.5C18.4464 18.5 20.2444 19.18 21.4444 19.888C22.0444 20.24 22.4884 20.594 22.7904 20.868C22.9465 21.0105 23.0947 21.1614 23.2344 21.32L23.2644 21.354L23.2744 21.366L23.2784 21.372C23.2784 21.372 23.2804 21.376 22.5004 22L23.2804 21.376C23.4456 21.583 23.522 21.847 23.4927 22.1103C23.4635 22.3735 23.331 22.6143 23.1244 22.78Z" fill="#D1D1D1"/>
<path d="M16 0C11.7565 0 7.68687 1.68571 4.68629 4.68629C1.68571 7.68687 0 11.7565 0 16C0 20.2435 1.68571 24.3131 4.68629 27.3137C7.68687 30.3143 11.7565 32 16 32C20.2435 32 24.3131 30.3143 27.3137 27.3137C30.3143 24.3131 32 20.2435 32 16C32 11.7565 30.3143 7.68687 27.3137 4.68629C24.3131 1.68571 20.2435 0 16 0ZM2 16C2 14.1615 2.36212 12.341 3.06569 10.6424C3.76925 8.94387 4.80048 7.40053 6.1005 6.1005C7.40053 4.80048 8.94387 3.76925 10.6424 3.06569C12.341 2.36212 14.1615 2 16 2C17.8385 2 19.659 2.36212 21.3576 3.06569C23.0561 3.76925 24.5995 4.80048 25.8995 6.1005C27.1995 7.40053 28.2307 8.94387 28.9343 10.6424C29.6379 12.341 30 14.1615 30 16C30 19.713 28.525 23.274 25.8995 25.8995C23.274 28.525 19.713 30 16 30C12.287 30 8.72601 28.525 6.1005 25.8995C3.475 23.274 2 19.713 2 16Z" fill="#D1D1D1"/>
</svg>
