<svg width="15" height="15" fill="none" xmlns="http://www.w3.org/2000/svg"><path d="M10.195 7.031H7.97V4.805a.118.118 0 00-.117-.117h-.704a.118.118 0 00-.117.117V7.03H4.805a.118.118 0 00-.117.117v.704c0 .064.052.117.117.117H7.03v2.226c0 .065.053.117.117.117h.704a.118.118 0 00.117-.117V7.97h2.226a.118.118 0 00.117-.117v-.704a.118.118 0 00-.117-.117z" fill="#C6C6C6"/><path d="M7.5.938a6.563 6.563 0 100 13.125A6.563 6.563 0 007.5.937zm0 12.011a5.45 5.45 0 010-10.898 5.45 5.45 0 010 10.898z" fill="#C6C6C6"/></svg>