<svg width="12" height="12" viewBox="0 0 12 12" fill="none" xmlns="http://www.w3.org/2000/svg">
<path d="M5.3807 0.126709C2.48811 0.126709 0.131836 2.48298 0.131836 5.37558C0.131836 8.26815 2.48811 10.629 5.3807 10.629C6.61621 10.629 7.7525 10.196 8.65055 9.47714L10.8369 11.6624C10.9472 11.7681 11.0946 11.8265 11.2474 11.8249C11.4003 11.8233 11.5464 11.762 11.6546 11.654C11.7627 11.546 11.8243 11.4 11.826 11.2471C11.8278 11.0943 11.7697 10.9469 11.6641 10.8364L9.4777 8.65003C10.1972 7.75059 10.6307 6.61252 10.6307 5.37558C10.6307 2.48298 8.27328 0.126709 5.3807 0.126709ZM5.3807 1.29339C7.64277 1.29339 9.46289 3.11351 9.46289 5.37558C9.46289 7.63765 7.64277 9.46234 5.3807 9.46234C3.11863 9.46234 1.2985 7.63765 1.2985 5.37558C1.2985 3.11351 3.11863 1.29339 5.3807 1.29339Z" fill="#E06012"/>
</svg>
