<svg width="16" height="18" viewBox="0 0 16 18" fill="none" xmlns="http://www.w3.org/2000/svg">
<path d="M10.774 8.78778C11.5119 8.21075 12.0514 7.41784 12.3171 6.5196C12.5829 5.62136 12.5617 4.66258 12.2565 3.77695C11.9514 2.89132 11.3775 2.123 10.6148 1.57912C9.85213 1.03524 8.93875 0.74292 8.00202 0.74292C7.06529 0.74292 6.15192 1.03524 5.38925 1.57912C4.62659 2.123 4.05266 2.89132 3.7475 3.77695C3.44235 4.66258 3.42117 5.62136 3.68692 6.5196C3.95268 7.41784 4.49212 8.21075 5.23002 8.78778C3.8359 9.34249 2.64002 10.3023 1.79672 11.5433C0.953424 12.7843 0.501412 14.2496 0.499023 15.75V16.5C0.499023 16.6989 0.578041 16.8897 0.718693 17.0304C0.859346 17.171 1.05011 17.25 1.24902 17.25H14.749C14.9479 17.25 15.1387 17.171 15.2794 17.0304C15.42 16.8897 15.499 16.6989 15.499 16.5V15.75C15.4971 14.2503 15.046 12.7855 14.2038 11.5446C13.3616 10.3036 12.167 9.34343 10.774 8.78778ZM4.99902 5.25003C4.99902 4.65668 5.17497 4.07666 5.50461 3.58332C5.83426 3.08997 6.30279 2.70545 6.85097 2.47839C7.39915 2.25133 8.00235 2.19192 8.58429 2.30767C9.16624 2.42343 9.70079 2.70915 10.1203 3.12871C10.5399 3.54826 10.8256 4.08281 10.9414 4.66476C11.0571 5.2467 10.9977 5.8499 10.7707 6.39808C10.5436 6.94626 10.1591 7.41479 9.66573 7.74444C9.17239 8.07408 8.59237 8.25003 7.99902 8.25003C7.20337 8.25003 6.44031 7.93396 5.8777 7.37135C5.31509 6.80874 4.99902 6.04568 4.99902 5.25003ZM1.99902 15.75C1.99902 14.1587 2.63116 12.6326 3.75638 11.5074C4.8816 10.3822 6.40772 9.75003 7.99902 9.75003C9.59032 9.75003 11.1164 10.3822 12.2417 11.5074C13.3669 12.6326 13.999 14.1587 13.999 15.75H1.99902Z" fill="#E06012"/>
</svg>
