<svg width="30" height="30" fill="none" xmlns="http://www.w3.org/2000/svg"><path d="M15 0C6.716 0 0 6.716 0 15c0 8.284 6.716 15 15 15 8.284 0 15-6.716 15-15 0-8.284-6.716-15-15-15zm8.803 20.48l-2.588.036s-.556.11-1.287-.394c-.969-.666-1.88-2.392-2.591-2.171-.71.22-.699 1.776-.699 1.776a.857.857 0 01-.16.51.988.988 0 01-.529.23h-1.146s-2.566.152-4.806-2.189c-2.463-2.542-4.632-7.62-4.632-7.62s-.128-.295.011-.494c.121-.171.419-.19.569-.197.647-.03 2.593-.018 2.593-.018a.943.943 0 01.474.093.768.768 0 01.389.418c.3.746.646 1.471 1.04 2.172 1.156 1.999 1.695 2.435 2.088 2.222.57-.312.395-2.824.395-2.824s0-.914-.288-1.319a1.3 1.3 0 00-.855-.448c-.156-.022.1-.383.432-.545.498-.244 1.378-.244 2.416-.244.457-.018.914.029 1.358.138.955.23.632 1.119.632 3.254 0 .683-.125 1.646.369 1.974.213.136.73.02 2.029-2.183.414-.729.773-1.487 1.075-2.27a.826.826 0 01.257-.313.667.667 0 01.377-.066l2.913-.02s.874-.104 1.016.293c.142.396-.327 1.381-1.517 2.96-1.954 2.606-2.172 2.369-.55 3.867 1.55 1.439 1.872 2.14 1.925 2.226.644 1.062-.71 1.147-.71 1.147z" fill="#fff"/></svg>